<svg xmlns="http://www.w3.org/2000/svg" xmlns:xlink="http://www.w3.org/1999/xlink" width="1080" zoomAndPan="magnify" viewBox="0 0 810 809.999993" height="1080" preserveAspectRatio="xMidYMid meet" version="1.0"><defs><clipPath id="c1b04dde6a"><path d="M 69.675781 79 L 740.175781 79 L 740.175781 728.722656 L 69.675781 728.722656 Z M 69.675781 79 " clip-rule="nonzero"/></clipPath><clipPath id="87fbdb86c8"><path d="M 56.457031 755.648438 L 59.328125 755.648438 L 59.328125 758.085938 L 56.457031 758.085938 Z M 56.457031 755.648438 " clip-rule="nonzero"/></clipPath><clipPath id="9d93377666"><path d="M 59.324219 756.523438 C 58.050781 758.550781 56.851562 758.175781 56.550781 757.726562 C 56.324219 757.351562 56.550781 756.074219 56.925781 755.773438 C 57.300781 755.476562 58.949219 755.925781 58.949219 755.925781 " clip-rule="nonzero"/></clipPath></defs><g clip-path="url(#c1b04dde6a)"><path fill="#010510" d="M 720.578125 556.519531 C 733.648438 523.988281 740.316406 489.550781 740.316406 454.164062 C 740.316406 337.917969 667.496094 238.417969 565.136719 198.671875 C 568.402344 195.269531 570.851562 191.324219 572.214844 187.238281 C 574.257812 180.433594 572.621094 174.035156 567.585938 169 C 572.214844 164.507812 576.707031 156.613281 576.570312 148.992188 C 576.433594 143.957031 574.121094 135.242188 560.371094 131.160156 C 562.140625 122.855469 559.828125 113.738281 553.976562 107.613281 C 549.890625 103.257812 540.5 96.996094 523.484375 101.214844 C 522.261719 95.089844 517.632812 88.691406 511.097656 84.882812 C 502.113281 79.707031 491.90625 80.390625 482.515625 86.652344 C 479.109375 82.839844 473.53125 80.390625 466.726562 79.707031 C 456.378906 78.757812 446.851562 82.976562 440.726562 90.871094 C 435.828125 88.011719 429.019531 87.332031 422.625 89.644531 C 415.410156 92.230469 410.507812 97.949219 409.011719 105.433594 C 401.527344 104.890625 396.082031 106.523438 392.542969 110.472656 C 388.050781 115.507812 388.1875 122.722656 388.730469 126.941406 C 384.101562 128.710938 376.207031 133.066406 374.03125 142.457031 C 371.851562 151.984375 377.976562 157.976562 383.148438 160.832031 C 382.742188 165.054688 384.375 170.90625 391.589844 175.125 C 394.582031 176.894531 397.578125 177.847656 400.574219 177.847656 C 400.164062 180.160156 399.347656 183.835938 398.667969 188.601562 C 289.773438 216.234375 206.746094 309.335938 193.949219 423.398438 L 73.488281 423.398438 C 72.261719 423.398438 71.171875 423.945312 70.492188 425.035156 C 69.8125 425.984375 69.675781 427.347656 70.085938 428.4375 L 93.359375 486.148438 C 93.90625 487.511719 95.265625 488.464844 96.761719 488.464844 L 194.222656 488.464844 C 194.902344 494.179688 195.855469 499.898438 196.945312 505.613281 L 104.386719 505.613281 C 103.160156 505.613281 102.070312 506.160156 101.390625 507.246094 C 100.710938 508.199219 100.574219 509.5625 100.984375 510.648438 L 188.097656 726.394531 C 188.640625 727.753906 190.003906 728.707031 191.5 728.707031 L 466.316406 728.707031 C 468.902344 728.707031 471.488281 728.570312 474.074219 728.433594 C 477.207031 728.296875 480.199219 728.296875 483.332031 728.164062 C 483.46875 728.164062 483.46875 728.164062 483.601562 728.164062 C 488.367188 727.890625 492.996094 727.480469 497.757812 726.9375 C 498.710938 726.800781 499.664062 726.664062 500.617188 726.527344 C 504.566406 725.984375 508.648438 725.441406 512.59375 724.757812 C 513.820312 724.625 514.910156 724.351562 516.132812 724.214844 C 519.808594 723.535156 523.484375 722.71875 527.160156 721.902344 C 528.25 721.628906 529.335938 721.492188 530.425781 721.21875 C 536.007812 719.859375 541.453125 718.363281 546.898438 716.730469 C 559.964844 712.78125 572.757812 707.746094 585.144531 701.757812 C 590.316406 699.304688 595.355469 696.71875 600.390625 693.996094 C 602.566406 692.773438 604.746094 691.410156 606.921875 690.050781 C 609.101562 688.824219 611.28125 687.464844 613.320312 686.238281 C 641.496094 668.40625 665.863281 645.8125 685.871094 619.132812 C 689.683594 614.097656 693.222656 608.925781 696.625 603.617188 C 696.625 603.617188 696.625 603.617188 696.625 603.480469 C 700.027344 598.171875 703.292969 592.863281 706.289062 587.554688 C 708.058594 584.289062 709.691406 581.023438 711.324219 577.753906 C 713.09375 574.214844 714.726562 570.675781 716.359375 567.136719 C 717.722656 563.191406 719.21875 559.789062 720.578125 556.519531 Z M 713.367188 554.75 C 709.417969 564.414062 704.789062 574.078125 699.617188 583.335938 C 693.765625 593.953125 687.09375 604.296875 679.609375 614.097656 C 660.144531 640.097656 636.324219 662.011719 608.964844 679.433594 C 604.746094 682.15625 600.527344 684.605469 596.304688 687.054688 C 575.753906 698.488281 553.976562 707.066406 531.242188 712.78125 L 506.742188 651.9375 L 601.34375 648.808594 C 601.34375 648.808594 601.480469 648.808594 601.480469 648.808594 L 631.152344 647.445312 C 633.195312 647.308594 634.691406 645.675781 634.554688 643.636719 C 634.417969 641.59375 632.648438 639.960938 630.742188 640.230469 L 604.882812 641.457031 L 604.882812 487.511719 C 604.882812 485.46875 603.25 483.835938 601.207031 483.835938 C 599.164062 483.835938 597.53125 485.46875 597.53125 487.511719 L 597.53125 641.730469 L 503.613281 644.859375 L 448.347656 507.519531 C 447.804688 506.160156 446.445312 505.207031 444.945312 505.207031 L 322.851562 505.207031 L 322.851562 455.660156 C 322.851562 453.617188 321.21875 451.984375 319.175781 451.984375 C 317.132812 451.984375 315.5 453.617188 315.5 455.660156 L 315.5 505.207031 L 249.894531 505.207031 L 255.472656 488.191406 L 271.671875 488.191406 C 272.894531 488.191406 273.984375 487.648438 274.664062 486.558594 C 275.347656 485.605469 275.484375 484.242188 275.074219 483.15625 L 265.136719 458.519531 L 267.996094 449.804688 C 283.648438 401.214844 323.667969 365.824219 371.988281 355.207031 C 372.261719 355.75 372.398438 356.429688 372.667969 356.976562 C 373.078125 357.792969 373.484375 358.746094 374.167969 359.96875 C 378.792969 369.632812 389.957031 392.5 424.664062 419.453125 C 422.078125 425.851562 420.308594 434.699219 421.808594 446.539062 C 425.210938 472.402344 412.277344 491.457031 412.140625 491.59375 C 411.054688 493.226562 411.460938 495.542969 413.09375 496.628906 C 413.777344 497.039062 414.457031 497.3125 415.136719 497.3125 C 416.226562 497.3125 417.449219 496.765625 418.132812 495.675781 C 418.675781 494.859375 432.695312 474.171875 429.019531 445.449219 C 427.796875 436.058594 428.882812 429.117188 430.652344 423.808594 C 436.507812 428.027344 442.769531 432.382812 449.847656 436.738281 C 450.390625 437.148438 451.070312 437.285156 451.753906 437.285156 C 452.023438 437.285156 452.160156 437.285156 452.433594 437.285156 C 453.792969 437.011719 464.957031 434.832031 480.472656 429.796875 C 481.832031 437.285156 483.738281 445.859375 487.007812 453.890625 C 497.351562 479.886719 490.679688 501.667969 490.679688 501.800781 C 490.136719 503.707031 491.089844 505.75 493.132812 506.292969 C 493.539062 506.429688 493.8125 506.429688 494.21875 506.429688 C 495.71875 506.429688 497.214844 505.476562 497.621094 503.84375 C 497.894531 502.890625 505.109375 479.617188 493.8125 451.03125 C 490.679688 443.136719 488.777344 434.699219 487.550781 427.210938 C 518.3125 416.320312 561.1875 395.222656 581.605469 358.609375 C 581.742188 358.335938 582.695312 356.566406 582.96875 354.117188 C 638.503906 364.597656 683.964844 408.019531 695.535156 464.914062 Z M 403.429688 207.25 C 405.882812 206.433594 408.601562 205.75 411.324219 205.75 C 424.527344 205.75 435.28125 216.503906 435.28125 229.707031 C 435.28125 242.910156 424.527344 253.664062 411.324219 253.664062 C 407.515625 253.664062 403.976562 252.710938 400.84375 251.078125 C 400.707031 235.832031 401.933594 220.179688 403.429688 207.25 Z M 443.039062 233.519531 L 444.128906 233.519531 C 445.898438 249.035156 459.101562 261.152344 475.027344 261.152344 C 491.363281 261.152344 504.699219 248.492188 506.0625 232.429688 L 516.679688 228.074219 C 516.816406 228.074219 516.816406 227.9375 516.953125 227.9375 C 517.085938 227.800781 517.222656 227.800781 517.359375 227.800781 C 519.945312 226.03125 522.125 225.351562 524.164062 225.898438 C 526.886719 226.578125 529.066406 229.300781 530.425781 231.476562 C 531.242188 233.519531 531.789062 236.242188 531.515625 239.917969 C 530.5625 251.078125 525.664062 261.96875 519.128906 267.140625 C 517.359375 268.636719 514.5 270.269531 511.644531 269.863281 C 509.738281 269.589844 508.105469 270.816406 507.558594 272.585938 C 502.929688 290.6875 506.335938 333.5625 507.285156 344.589844 C 485.101562 355.070312 468.222656 348.265625 462.234375 345.132812 C 463.867188 338.328125 463.867188 327.03125 463.59375 321.585938 C 469.039062 319.40625 482.242188 313.148438 491.089844 301.167969 C 492.3125 299.535156 491.90625 297.222656 490.273438 296.132812 C 488.640625 294.90625 486.324219 295.316406 485.238281 296.949219 C 475.4375 310.152344 458.828125 315.734375 458.695312 315.734375 C 441.542969 321.585938 428.066406 320.359375 418.8125 312.058594 C 406.96875 301.578125 402.207031 281.296875 401.117188 259.515625 C 404.382812 260.605469 407.785156 261.421875 411.324219 261.421875 C 420.445312 261.421875 428.613281 257.476562 434.328125 251.214844 C 433.105469 257.066406 431.0625 263.328125 427.25 269.179688 C 426.164062 270.816406 426.570312 273.128906 428.339844 274.21875 C 428.882812 274.625 429.703125 274.761719 430.382812 274.761719 C 431.605469 274.761719 432.695312 274.21875 433.375 273.128906 C 442.90625 258.019531 443.449219 241.140625 443.039062 233.519531 Z M 451.070312 229.84375 C 451.070312 216.640625 461.824219 205.886719 475.027344 205.886719 C 488.230469 205.886719 498.984375 216.640625 498.984375 229.84375 C 498.984375 243.046875 488.230469 253.800781 475.027344 253.800781 C 461.824219 253.800781 451.070312 243.046875 451.070312 229.84375 Z M 479.109375 422.175781 C 465.90625 426.53125 455.835938 428.980469 452.296875 429.796875 C 445.492188 425.578125 439.367188 421.359375 433.785156 417.273438 C 436.234375 413.464844 438.683594 411.695312 438.957031 411.421875 C 440.589844 410.332031 441.136719 408.019531 440.046875 406.386719 C 438.957031 404.753906 436.644531 404.207031 435.011719 405.296875 C 434.738281 405.433594 431.335938 407.746094 428.066406 412.78125 C 395.535156 387.328125 385.054688 365.824219 380.699219 356.703125 C 380.019531 355.34375 379.476562 354.253906 379.066406 353.4375 C 377.839844 351.121094 377.839844 348.265625 379.066406 345.40625 C 381.246094 340.097656 386.960938 335.878906 394.582031 333.835938 C 397.035156 333.15625 399.074219 332.882812 400.84375 332.882812 C 406.289062 332.882812 408.738281 335.605469 409.554688 336.96875 C 408.46875 342.003906 406.699219 358.609375 422.214844 383.519531 C 422.894531 384.605469 424.121094 385.289062 425.34375 385.289062 C 426.027344 385.289062 426.707031 385.152344 427.25 384.742188 C 429.019531 383.65625 429.429688 381.476562 428.339844 379.707031 C 413.09375 355.34375 416.089844 340.234375 416.632812 338.054688 C 417.316406 337.238281 423.847656 331.25 456.515625 330.296875 C 456.515625 332.882812 456.378906 335.332031 456.109375 337.648438 C 451.480469 339.144531 446.851562 341.050781 442.222656 343.636719 C 442.085938 343.773438 441.953125 343.910156 441.816406 344.042969 C 441.542969 344.316406 441.136719 344.589844 441 344.996094 C 441 344.996094 440.863281 344.996094 440.863281 345.132812 C 440.726562 345.269531 440.726562 345.542969 440.726562 345.679688 C 440.589844 345.949219 440.453125 346.222656 440.453125 346.496094 C 440.316406 347.855469 438.140625 380.523438 457.058594 410.46875 C 457.742188 411.558594 458.964844 412.238281 460.191406 412.238281 C 460.871094 412.238281 461.550781 412.101562 462.097656 411.695312 C 464.273438 410.332031 514.363281 379.433594 530.699219 348.535156 C 530.972656 348.128906 531.105469 347.582031 531.105469 347.175781 C 531.105469 346.632812 530.972656 346.085938 530.835938 345.542969 C 530.835938 345.40625 530.835938 345.40625 530.835938 345.269531 C 530.835938 345.132812 530.699219 345.132812 530.699219 345.132812 C 530.425781 344.726562 530.152344 344.316406 529.609375 344.042969 C 529.472656 344.042969 529.472656 343.910156 529.335938 343.910156 C 529.335938 343.910156 529.335938 343.910156 529.203125 343.910156 C 528.65625 343.5 523.078125 340.640625 514.230469 337.917969 C 514.09375 336.832031 514.09375 335.605469 513.957031 334.378906 C 533.691406 338.328125 538.867188 343.910156 538.867188 343.910156 C 538.867188 343.910156 538.867188 343.910156 538.867188 344.042969 C 540.636719 346.359375 539.953125 356.296875 516.816406 374.261719 C 515.179688 375.488281 514.910156 377.800781 516.132812 379.433594 C 516.816406 380.386719 517.902344 380.796875 518.992188 380.796875 C 519.808594 380.796875 520.625 380.523438 521.171875 379.980469 C 537.367188 367.457031 545.808594 356.429688 546.488281 347.3125 C 546.625 345.679688 546.351562 344.453125 546.078125 343.226562 C 549.347656 342.003906 555.878906 340.640625 565.542969 344.863281 C 572.621094 347.992188 574.390625 350.851562 574.9375 352.347656 C 575.480469 353.980469 574.9375 355.070312 574.800781 355.207031 C 555.878906 389.097656 515.589844 409.242188 485.917969 419.996094 C 485.101562 413.191406 484.964844 408.699219 484.964844 408.5625 C 484.964844 406.523438 483.195312 404.886719 481.289062 405.023438 C 479.246094 405.023438 477.75 406.792969 477.75 408.699219 C 477.886719 408.972656 478.160156 414.417969 479.109375 422.175781 Z M 518.722656 350.171875 C 512.460938 355.613281 501.027344 363.101562 484.964844 363.101562 C 468.628906 363.101562 457.742188 355.75 452.023438 350.171875 L 456.925781 350.171875 C 457.0625 350.304688 457.332031 350.441406 457.46875 350.441406 C 457.742188 350.578125 458.148438 350.851562 458.558594 350.988281 C 482.648438 365.007812 507.152344 352.890625 512.1875 350.035156 L 518.722656 350.035156 Z M 408.332031 176.757812 C 408.332031 176.621094 408.332031 176.621094 408.332031 176.488281 C 408.332031 176.214844 408.46875 175.941406 408.46875 175.671875 C 411.734375 173.765625 414.046875 170.90625 415.679688 168.320312 C 418.949219 171.722656 424.257812 175.535156 431.335938 175.535156 C 437.597656 175.535156 442.222656 171.859375 445.492188 168.046875 C 447.53125 172.8125 451.617188 177.304688 458.964844 178.527344 C 467.542969 179.890625 473.9375 174.851562 477.75 169.542969 C 482.785156 178.121094 491.496094 187.511719 503.066406 186.152344 C 503.882812 195.679688 509.328125 200.578125 512.730469 202.621094 L 511.914062 222.085938 L 505.925781 224.535156 C 503.476562 209.699219 490.679688 198.402344 475.164062 198.402344 C 459.101562 198.402344 446.035156 210.515625 444.265625 226.03125 L 442.496094 226.03125 C 440.726562 210.515625 427.523438 198.402344 411.597656 198.402344 C 409.285156 198.402344 406.96875 198.671875 404.65625 199.21875 C 406.425781 186.015625 408.195312 177.03125 408.332031 176.757812 Z M 99.347656 480.839844 L 78.933594 430.476562 L 245.945312 430.476562 L 266.363281 480.839844 Z M 193.949219 720.949219 L 109.695312 512.417969 L 442.496094 512.417969 L 524.164062 714.550781 C 505.382812 718.769531 485.917969 720.949219 466.179688 720.949219 Z M 193.949219 720.949219 " fill-opacity="1" fill-rule="nonzero"/></g><path fill="#010510" d="M 286.917969 616.820312 C 288.277344 620.222656 290.183594 623.355469 292.632812 626.347656 C 300.121094 635.738281 311.824219 642.136719 322.714844 642.136719 C 329.792969 642.136719 335.507812 639.414062 338.914062 634.378906 C 339.457031 633.5625 339.863281 632.472656 340.273438 631.519531 C 342.453125 626.484375 342.453125 620.359375 339.863281 614.097656 C 334.148438 599.941406 318.359375 588.78125 304.066406 588.78125 C 299.710938 588.78125 296.035156 589.871094 292.90625 591.773438 C 290.863281 593 289.09375 594.496094 287.867188 596.402344 C 286.507812 598.308594 285.828125 600.621094 285.417969 603.074219 C 284.601562 607.292969 285.011719 612.054688 286.917969 616.820312 Z M 304.066406 595.996094 C 315.226562 595.996094 328.566406 605.523438 333.058594 616.683594 C 335.238281 621.992188 335.101562 626.894531 332.921875 630.160156 C 331.019531 633.019531 327.34375 634.789062 322.714844 634.789062 C 311.554688 634.789062 298.214844 625.257812 293.722656 613.960938 C 291.542969 608.789062 291.679688 603.753906 293.996094 600.484375 C 295.765625 597.628906 299.4375 595.996094 304.066406 595.996094 Z M 304.066406 595.996094 " fill-opacity="1" fill-rule="nonzero"/><path fill="#0047ff" d="M 582.558594 354.253906 C 582.285156 356.703125 581.332031 358.472656 581.199219 358.746094 C 560.78125 395.496094 517.902344 416.457031 487.140625 427.347656 C 488.367188 434.699219 490.273438 443.273438 493.402344 451.167969 C 504.699219 479.75 497.488281 503.027344 497.214844 503.980469 C 496.671875 505.476562 495.308594 506.566406 493.8125 506.566406 C 493.402344 506.566406 493.132812 506.566406 492.722656 506.429688 C 490.816406 505.886719 489.726562 503.84375 490.273438 501.9375 C 490.273438 501.667969 496.941406 480.023438 486.597656 454.027344 C 483.46875 445.996094 481.425781 437.421875 480.0625 429.933594 C 464.546875 434.96875 453.386719 437.285156 452.023438 437.421875 C 451.753906 437.421875 451.617188 437.421875 451.34375 437.421875 C 450.664062 437.421875 449.984375 437.285156 449.4375 436.875 C 442.359375 432.519531 436.097656 428.164062 430.246094 423.945312 C 428.476562 429.117188 427.386719 436.195312 428.613281 445.585938 C 432.289062 474.308594 418.402344 494.859375 417.722656 495.8125 C 417.042969 496.765625 415.953125 497.445312 414.730469 497.445312 C 414.046875 497.445312 413.230469 497.175781 412.6875 496.765625 C 411.054688 495.675781 410.644531 493.363281 411.734375 491.730469 C 411.871094 491.59375 424.664062 472.539062 421.398438 446.675781 C 419.902344 434.832031 421.535156 425.984375 424.257812 419.589844 C 389.546875 392.636719 378.386719 369.769531 373.757812 360.105469 C 373.214844 358.882812 372.667969 357.929688 372.261719 357.113281 C 371.988281 356.566406 371.851562 355.886719 371.582031 355.34375 C 323.257812 365.960938 283.378906 401.347656 267.589844 449.941406 L 264.730469 458.652344 L 274.664062 483.289062 C 275.074219 484.378906 274.9375 485.742188 274.257812 486.695312 C 273.578125 487.648438 272.488281 488.328125 271.261719 488.328125 L 255.066406 488.328125 L 249.484375 505.339844 L 315.09375 505.339844 L 315.09375 455.796875 C 315.09375 453.753906 316.726562 452.121094 318.765625 452.121094 C 320.808594 452.121094 322.441406 453.753906 322.441406 455.796875 L 322.441406 505.339844 L 444.539062 505.339844 C 446.035156 505.339844 447.394531 506.292969 447.941406 507.65625 L 503.476562 644.996094 L 597.394531 641.867188 L 597.394531 487.511719 C 597.394531 485.46875 599.027344 483.835938 601.070312 483.835938 C 603.113281 483.835938 604.746094 485.46875 604.746094 487.511719 L 604.746094 641.457031 L 630.609375 640.230469 C 632.511719 640.097656 634.28125 641.730469 634.417969 643.636719 C 634.554688 645.675781 632.921875 647.308594 631.015625 647.445312 L 601.34375 648.808594 C 601.34375 648.808594 601.207031 648.808594 601.207031 648.808594 L 506.605469 651.9375 L 531.105469 712.78125 C 553.703125 707.199219 575.617188 698.625 596.171875 687.054688 C 600.527344 684.605469 604.746094 682.15625 608.828125 679.433594 C 636.1875 662.011719 660.007812 640.097656 679.472656 614.097656 C 686.824219 604.296875 693.628906 593.953125 699.480469 583.335938 C 704.65625 574.078125 709.28125 564.414062 713.230469 554.75 L 694.992188 464.914062 C 683.691406 408.019531 638.230469 364.734375 582.558594 354.253906 Z M 582.558594 354.253906 " fill-opacity="1" fill-rule="nonzero"/><path fill="#0047ff" d="M 481.425781 404.753906 C 483.332031 404.617188 485.101562 406.25 485.101562 408.292969 C 485.101562 408.425781 485.238281 413.054688 486.054688 419.726562 C 515.589844 408.972656 556.015625 388.828125 574.9375 354.933594 C 575.074219 354.660156 575.617188 353.574219 575.074219 352.074219 C 574.527344 350.578125 572.757812 347.582031 565.679688 344.589844 C 556.015625 340.371094 549.484375 341.59375 546.214844 342.957031 C 546.488281 344.042969 546.625 345.40625 546.625 347.039062 C 545.945312 356.160156 537.503906 367.046875 521.308594 379.707031 C 520.625 380.25 519.808594 380.523438 519.128906 380.523438 C 518.039062 380.523438 516.953125 379.980469 516.269531 379.164062 C 515.046875 377.527344 515.316406 375.351562 516.953125 373.988281 C 540.089844 356.023438 540.636719 346.085938 539.003906 343.773438 C 539.003906 343.773438 539.003906 343.773438 539.003906 343.636719 C 539.003906 343.636719 533.828125 338.054688 514.09375 334.109375 C 514.230469 335.332031 514.230469 336.558594 514.363281 337.648438 C 523.078125 340.371094 528.65625 343.363281 529.335938 343.636719 C 529.335938 343.636719 529.335938 343.636719 529.472656 343.636719 C 529.609375 343.636719 529.609375 343.773438 529.746094 343.773438 C 530.15625 344.042969 530.5625 344.453125 530.835938 344.863281 C 530.835938 344.996094 530.972656 344.996094 530.972656 344.996094 C 530.972656 345.132812 530.972656 345.132812 530.972656 345.269531 C 531.242188 345.8125 531.378906 346.359375 531.242188 346.902344 C 531.242188 347.3125 531.105469 347.855469 530.835938 348.265625 C 514.5 379.164062 464.410156 410.195312 462.234375 411.421875 C 461.6875 411.832031 461.007812 411.964844 460.328125 411.964844 C 459.101562 411.964844 457.878906 411.421875 457.195312 410.195312 C 438.277344 380.117188 440.453125 347.582031 440.589844 346.222656 C 440.589844 345.949219 440.726562 345.679688 440.863281 345.40625 C 440.863281 345.269531 440.863281 344.996094 441 344.863281 C 441 344.863281 441.136719 344.863281 441.136719 344.726562 C 441.40625 344.316406 441.679688 344.042969 441.953125 343.773438 C 442.089844 343.636719 442.222656 343.5 442.359375 343.363281 C 446.988281 340.777344 451.617188 338.871094 456.242188 337.375 C 456.378906 335.0625 456.515625 332.609375 456.652344 330.023438 C 423.984375 330.976562 417.449219 336.96875 416.769531 337.785156 C 416.226562 339.824219 413.09375 355.070312 428.476562 379.433594 C 429.566406 381.066406 429.019531 383.382812 427.386719 384.472656 C 426.84375 384.878906 426.164062 385.015625 425.480469 385.015625 C 424.257812 385.015625 423.03125 384.472656 422.351562 383.246094 C 406.699219 358.335938 408.605469 341.730469 409.691406 336.695312 C 408.875 335.332031 406.425781 332.609375 400.980469 332.609375 C 399.210938 332.609375 397.171875 332.882812 394.71875 333.5625 C 387.097656 335.742188 381.378906 339.960938 379.203125 345.132812 C 377.976562 347.992188 377.976562 350.851562 379.203125 353.164062 C 379.609375 353.980469 380.15625 355.070312 380.835938 356.429688 C 385.191406 365.550781 395.535156 387.058594 428.203125 412.511719 C 431.472656 407.472656 434.875 405.296875 435.144531 405.023438 C 436.78125 403.9375 439.09375 404.34375 440.183594 406.113281 C 441.269531 407.746094 440.863281 410.0625 439.09375 411.148438 C 438.820312 411.285156 436.371094 413.191406 433.921875 417.003906 C 439.5 421.085938 445.628906 425.304688 452.433594 429.523438 C 455.972656 428.707031 466.179688 426.394531 479.246094 421.902344 C 478.292969 414.144531 478.023438 408.699219 478.023438 408.15625 C 477.886719 406.523438 479.519531 404.753906 481.425781 404.753906 Z M 481.425781 404.753906 " fill-opacity="1" fill-rule="nonzero"/><path fill="#0047ff" d="M 458.558594 351.121094 C 458.148438 350.851562 457.878906 350.714844 457.46875 350.578125 C 457.332031 350.441406 457.0625 350.304688 456.925781 350.304688 L 452.023438 350.304688 C 457.742188 355.75 468.628906 363.238281 484.964844 363.238281 C 501.027344 363.238281 512.460938 355.886719 518.722656 350.304688 L 512.324219 350.304688 C 507.152344 353.164062 482.648438 365.277344 458.558594 351.121094 Z M 458.558594 351.121094 " fill-opacity="1" fill-rule="nonzero"/><path fill="#0047ff" d="M 435.417969 229.84375 C 435.417969 216.640625 424.664062 205.886719 411.460938 205.886719 C 408.601562 205.886719 406.015625 206.433594 403.566406 207.386719 C 402.070312 220.316406 400.707031 235.96875 400.980469 251.488281 C 404.113281 252.984375 407.652344 254.074219 411.460938 254.074219 C 424.664062 253.800781 435.417969 243.046875 435.417969 229.84375 Z M 407.785156 240.050781 C 407.785156 235.96875 411.054688 232.703125 415.136719 232.703125 C 419.21875 232.703125 422.488281 235.96875 422.488281 240.050781 C 422.488281 244.136719 419.21875 247.402344 415.136719 247.402344 C 411.054688 247.402344 407.785156 244 407.785156 240.050781 Z M 407.785156 240.050781 " fill-opacity="1" fill-rule="nonzero"/><path fill="#0047ff" d="M 404.519531 199.355469 C 406.699219 198.808594 409.011719 198.539062 411.460938 198.539062 C 427.523438 198.539062 440.589844 210.652344 442.359375 226.167969 L 444.128906 226.167969 C 445.898438 210.652344 459.101562 198.539062 475.027344 198.539062 C 490.546875 198.539062 503.339844 209.835938 505.789062 224.671875 L 511.777344 222.222656 L 512.59375 202.757812 C 509.328125 200.714844 503.882812 195.816406 502.929688 186.285156 C 491.363281 187.648438 482.648438 178.257812 477.613281 169.679688 C 473.804688 174.988281 467.40625 180.027344 458.832031 178.664062 C 451.480469 177.441406 447.394531 172.949219 445.355469 168.183594 C 442.089844 171.996094 437.460938 175.671875 431.199219 175.671875 C 424.121094 175.671875 418.8125 171.859375 415.546875 168.457031 C 413.910156 171.042969 411.460938 173.902344 408.332031 175.804688 C 408.332031 176.078125 408.195312 176.351562 408.195312 176.621094 C 408.195312 176.757812 408.195312 176.757812 408.195312 176.894531 C 408.195312 177.03125 406.425781 186.015625 404.519531 199.355469 Z M 404.519531 199.355469 " fill-opacity="1" fill-rule="nonzero"/><path fill="#0047ff" d="M 475.027344 253.800781 C 488.230469 253.800781 498.984375 243.046875 498.984375 229.84375 C 498.984375 216.640625 488.230469 205.886719 475.027344 205.886719 C 461.824219 205.886719 451.070312 216.640625 451.070312 229.84375 C 451.070312 243.046875 461.824219 253.800781 475.027344 253.800781 Z M 469.992188 232.703125 C 474.074219 232.703125 477.339844 235.96875 477.339844 240.050781 C 477.339844 244.136719 474.074219 247.402344 469.992188 247.402344 C 465.90625 247.402344 462.640625 244.136719 462.640625 240.050781 C 462.640625 235.96875 465.90625 232.703125 469.992188 232.703125 Z M 469.992188 232.703125 " fill-opacity="1" fill-rule="nonzero"/><path fill="#0047ff" d="M 430.382812 274.488281 C 429.703125 274.488281 429.019531 274.355469 428.339844 273.945312 C 426.707031 272.855469 426.164062 270.542969 427.25 268.910156 C 431.0625 263.054688 433.105469 256.792969 434.328125 250.941406 C 428.613281 257.203125 420.445312 261.152344 411.324219 261.152344 C 407.785156 261.152344 404.382812 260.46875 401.117188 259.246094 C 402.34375 281.023438 406.96875 301.304688 418.8125 311.785156 C 428.203125 320.089844 441.542969 321.3125 458.695312 315.460938 C 458.832031 315.460938 475.4375 309.742188 485.238281 296.675781 C 486.460938 295.042969 488.640625 294.769531 490.273438 295.859375 C 491.90625 297.085938 492.179688 299.261719 491.089844 300.894531 C 482.242188 312.875 469.039062 319.136719 463.59375 321.3125 C 463.730469 326.757812 463.867188 338.054688 462.234375 344.863281 C 468.222656 347.992188 485.101562 354.796875 507.289062 344.316406 C 506.335938 333.429688 502.929688 290.414062 507.558594 272.3125 C 507.96875 270.542969 509.738281 269.316406 511.644531 269.589844 C 514.5 270 517.359375 268.363281 519.128906 266.867188 C 525.664062 261.695312 530.5625 250.667969 531.515625 239.644531 C 531.789062 235.96875 531.378906 233.246094 530.425781 231.207031 C 529.066406 229.027344 526.75 226.441406 524.164062 225.625 C 522.125 225.078125 519.808594 225.625 517.359375 227.53125 C 517.222656 227.667969 517.085938 227.667969 516.953125 227.667969 C 516.816406 227.667969 516.816406 227.800781 516.679688 227.800781 L 506.0625 232.15625 C 504.699219 248.21875 491.363281 260.878906 475.027344 260.878906 C 458.964844 260.878906 445.898438 248.765625 444.128906 233.246094 L 443.039062 233.246094 C 443.449219 240.871094 442.90625 257.882812 433.375 272.585938 C 432.695312 273.808594 431.605469 274.488281 430.382812 274.488281 Z M 438.820312 287.828125 C 438.957031 287.964844 444.539062 291.230469 450.933594 289.597656 C 455.699219 288.375 459.78125 284.835938 463.1875 278.84375 C 464.136719 277.074219 466.453125 276.53125 468.222656 277.484375 C 469.992188 278.4375 470.535156 280.75 469.582031 282.519531 C 465.089844 290.277344 459.375 295.179688 452.570312 296.8125 C 450.800781 297.222656 449.03125 297.492188 447.394531 297.492188 C 440.453125 297.492188 435.28125 294.226562 435.011719 294.089844 C 433.375 293 432.832031 290.824219 433.921875 289.054688 C 434.875 287.285156 437.050781 286.742188 438.820312 287.828125 Z M 438.820312 287.828125 " fill-opacity="1" fill-rule="nonzero"/><path fill="#010510" d="M 422.488281 240.050781 C 422.488281 235.96875 419.21875 232.703125 415.136719 232.703125 C 411.054688 232.703125 407.785156 235.96875 407.785156 240.050781 C 407.785156 244.136719 411.054688 247.402344 415.136719 247.402344 C 419.21875 247.402344 422.488281 244 422.488281 240.050781 Z M 422.488281 240.050781 " fill-opacity="1" fill-rule="nonzero"/><path fill="#010510" d="M 469.992188 247.402344 C 474.074219 247.402344 477.339844 244.136719 477.339844 240.050781 C 477.339844 235.96875 474.074219 232.703125 469.992188 232.703125 C 465.90625 232.703125 462.640625 235.96875 462.640625 240.050781 C 462.640625 244 465.90625 247.402344 469.992188 247.402344 Z M 469.992188 247.402344 " fill-opacity="1" fill-rule="nonzero"/><path fill="#010510" d="M 434.875 293.953125 C 435.144531 294.089844 440.320312 297.355469 447.261719 297.355469 C 448.894531 297.355469 450.664062 297.222656 452.433594 296.675781 C 459.238281 295.042969 464.820312 290.277344 469.445312 282.382812 C 470.398438 280.613281 469.855469 278.4375 468.085938 277.347656 C 466.316406 276.394531 464.136719 276.941406 463.050781 278.710938 C 459.648438 284.699219 455.425781 288.375 450.800781 289.460938 C 444.539062 291.097656 438.820312 287.691406 438.683594 287.691406 C 437.050781 286.605469 434.738281 287.148438 433.648438 288.78125 C 432.695312 290.6875 433.242188 293 434.875 293.953125 Z M 434.875 293.953125 " fill-opacity="1" fill-rule="nonzero"/><path fill="#0047ff" d="M 466.316406 720.949219 C 486.054688 720.949219 505.519531 718.769531 524.300781 714.550781 L 442.632812 512.417969 L 109.695312 512.417969 L 193.949219 720.8125 L 466.316406 720.8125 Z M 287.734375 596.539062 C 289.09375 594.632812 290.863281 593.136719 292.769531 591.910156 C 295.898438 590.003906 299.574219 588.917969 303.929688 588.917969 C 318.222656 588.917969 333.875 600.078125 339.730469 614.234375 C 342.316406 620.496094 342.316406 626.757812 340.136719 631.65625 C 339.730469 632.609375 339.320312 633.5625 338.777344 634.515625 C 335.375 639.550781 329.65625 642.273438 322.578125 642.273438 C 311.6875 642.273438 299.984375 635.738281 292.496094 626.484375 C 290.183594 623.488281 288.140625 620.359375 286.78125 616.957031 C 284.875 612.191406 284.464844 607.429688 285.148438 603.34375 C 285.691406 600.757812 286.507812 598.445312 287.734375 596.539062 Z M 287.734375 596.539062 " fill-opacity="1" fill-rule="nonzero"/><path fill="#0047ff" d="M 293.585938 614.097656 C 298.214844 625.394531 311.417969 634.921875 322.578125 634.921875 C 327.207031 634.921875 330.746094 633.289062 332.789062 630.296875 C 335.101562 626.894531 335.101562 622.128906 332.921875 616.820312 C 328.429688 605.660156 315.09375 596.128906 303.929688 596.128906 C 299.304688 596.128906 295.765625 597.765625 293.722656 600.621094 C 291.542969 603.890625 291.542969 608.925781 293.585938 614.097656 Z M 293.585938 614.097656 " fill-opacity="1" fill-rule="nonzero"/><path fill="#0047ff" d="M 266.226562 480.839844 L 245.808594 430.476562 L 78.933594 430.476562 L 99.347656 480.839844 Z M 227.027344 438.238281 L 230.019531 438.238281 C 230.699219 438.238281 231.515625 438.917969 231.515625 439.597656 L 233.285156 472.539062 C 233.285156 472.945312 233.015625 473.21875 232.605469 473.21875 L 229.613281 473.21875 C 228.929688 473.21875 228.113281 472.539062 228.113281 471.855469 L 226.34375 438.917969 C 226.207031 438.507812 226.480469 438.238281 227.027344 438.238281 Z M 215.183594 438.238281 L 218.179688 438.238281 C 218.859375 438.238281 219.675781 438.917969 219.675781 439.597656 L 221.445312 472.539062 C 221.445312 472.945312 221.171875 473.21875 220.765625 473.21875 L 217.769531 473.21875 C 217.089844 473.21875 216.273438 472.539062 216.273438 471.855469 L 214.503906 438.917969 C 214.367188 438.507812 214.640625 438.238281 215.183594 438.238281 Z M 209.332031 463.554688 C 210.285156 464.234375 210.964844 465.050781 211.371094 466.140625 C 211.78125 467.230469 211.78125 468.046875 211.371094 468.726562 C 210.964844 469.40625 210.285156 469.816406 209.195312 469.816406 C 208.242188 469.816406 207.152344 469.40625 206.199219 468.726562 C 205.246094 468.046875 204.566406 467.230469 204.15625 466.140625 C 203.75 465.050781 203.75 464.234375 204.15625 463.554688 C 204.566406 462.875 205.246094 462.601562 206.335938 462.601562 C 207.425781 462.464844 208.378906 462.875 209.332031 463.554688 Z M 198.851562 450.214844 C 199.257812 449.535156 199.9375 449.261719 201.027344 449.261719 C 201.980469 449.261719 203.070312 449.535156 204.023438 450.214844 C 204.976562 450.894531 205.65625 451.710938 206.0625 452.800781 C 206.472656 453.890625 206.472656 454.707031 206.0625 455.386719 C 205.65625 456.066406 204.976562 456.476562 203.886719 456.476562 C 202.933594 456.476562 201.84375 456.066406 200.890625 455.386719 C 199.9375 454.707031 199.257812 453.890625 198.851562 452.800781 C 198.441406 451.710938 198.441406 450.894531 198.851562 450.214844 Z M 134.46875 469.40625 L 130.792969 469.40625 C 130.246094 469.40625 129.566406 469 129.292969 468.316406 L 125.484375 458.789062 C 124.804688 457.15625 123.984375 456.066406 123.035156 455.25 C 122.082031 454.433594 120.855469 454.027344 119.496094 454.027344 C 117.996094 454.027344 117.042969 454.433594 116.5 455.386719 C 115.957031 456.339844 116.089844 457.566406 116.773438 459.472656 L 120.3125 468.316406 C 120.582031 468.863281 120.3125 469.40625 119.628906 469.40625 L 115.957031 469.40625 C 115.410156 469.40625 114.730469 469 114.457031 468.316406 L 104.386719 443 C 104.113281 442.457031 104.386719 441.910156 105.066406 441.910156 L 108.742188 441.910156 C 109.285156 441.910156 109.964844 442.320312 110.238281 443 L 112.824219 449.535156 C 113.097656 450.351562 114.1875 450.894531 114.730469 450.488281 C 115.003906 450.214844 115.410156 450.078125 115.683594 449.941406 C 116.636719 449.535156 117.726562 449.398438 118.949219 449.398438 C 121.398438 449.398438 123.714844 450.078125 125.890625 451.574219 C 128.070312 453.074219 129.703125 455.25 130.792969 458.246094 L 135.011719 468.589844 C 135.285156 469 135.011719 469.40625 134.46875 469.40625 Z M 152.570312 469 C 152.296875 469.136719 151.890625 469.40625 151.480469 469.40625 C 150.664062 469.679688 149.847656 469.679688 149.03125 469.679688 C 146.71875 469.679688 144.539062 469.136719 142.769531 467.910156 C 141 466.683594 139.640625 464.914062 138.6875 462.601562 L 135.828125 455.386719 C 135.554688 454.84375 135.011719 454.296875 134.332031 454.296875 L 133.378906 454.296875 C 132.832031 454.296875 132.152344 453.890625 131.882812 453.210938 L 130.929688 450.757812 C 130.65625 450.214844 130.929688 449.671875 131.609375 449.671875 L 132.5625 449.671875 C 133.105469 449.671875 133.378906 449.261719 133.242188 448.582031 L 132.152344 445.859375 C 131.882812 445.316406 132.152344 444.769531 132.832031 444.769531 L 136.507812 444.769531 C 137.054688 444.769531 137.734375 445.179688 138.007812 445.859375 L 139.09375 448.582031 C 139.367188 449.125 139.910156 449.671875 140.59375 449.671875 L 143.449219 449.671875 C 143.996094 449.671875 144.675781 450.078125 144.949219 450.757812 L 145.902344 453.210938 C 146.171875 453.753906 145.902344 454.296875 145.21875 454.296875 L 142.363281 454.296875 C 141.816406 454.296875 141.546875 454.707031 141.679688 455.386719 L 144.539062 462.464844 C 144.949219 463.28125 145.355469 463.960938 146.035156 464.371094 C 146.582031 464.777344 147.398438 465.050781 148.078125 465.050781 C 148.625 465.050781 149.03125 464.914062 149.441406 464.777344 C 149.847656 464.644531 150.527344 464.914062 150.9375 465.324219 L 152.707031 467.5 C 152.980469 468.183594 152.980469 468.726562 152.570312 469 Z M 189.59375 469.40625 L 185.917969 469.40625 C 185.375 469.40625 184.695312 469 184.421875 468.316406 L 180.609375 458.789062 C 179.929688 457.15625 179.113281 456.066406 178.160156 455.25 C 177.207031 454.433594 176.117188 454.027344 174.894531 454.027344 C 173.53125 454.027344 172.578125 454.433594 172.171875 455.386719 C 171.761719 456.203125 171.898438 457.566406 172.578125 459.335938 L 176.253906 468.316406 C 176.527344 468.863281 176.253906 469.40625 175.574219 469.40625 L 171.898438 469.40625 C 171.355469 469.40625 170.671875 469 170.402344 468.316406 L 166.589844 458.789062 C 165.367188 455.660156 163.460938 454.027344 160.875 454.027344 C 159.511719 454.027344 158.695312 454.433594 158.152344 455.386719 C 157.742188 456.203125 157.878906 457.566406 158.558594 459.335938 L 162.234375 468.316406 C 162.507812 468.863281 162.234375 469.40625 161.554688 469.40625 L 157.878906 469.40625 C 157.335938 469.40625 156.652344 469 156.382812 468.316406 L 149.167969 450.488281 C 148.894531 449.941406 149.167969 449.398438 149.847656 449.398438 L 153.25 449.398438 C 153.796875 449.398438 154.476562 449.804688 154.75 450.488281 L 155.292969 451.710938 C 155.699219 450.894531 156.382812 450.214844 157.199219 449.804688 C 158.152344 449.398438 159.238281 449.125 160.464844 449.125 C 161.828125 449.125 163.1875 449.398438 164.683594 449.941406 C 165.636719 450.351562 166.453125 450.757812 167.269531 451.441406 C 167.953125 451.847656 168.632812 451.984375 168.902344 451.441406 C 169.3125 450.894531 169.855469 450.351562 170.539062 449.941406 C 171.492188 449.398438 172.851562 449.125 174.347656 449.125 C 176.800781 449.125 179.113281 449.804688 181.15625 451.304688 C 183.195312 452.800781 184.828125 454.980469 186.054688 457.972656 L 190.273438 468.316406 C 190.410156 469 190.136719 469.40625 189.59375 469.40625 Z M 195.445312 468.453125 L 185.101562 443 C 184.828125 442.457031 185.101562 441.910156 185.78125 441.910156 L 189.457031 441.910156 C 190.003906 441.910156 190.683594 442.320312 190.953125 443 L 201.300781 468.453125 C 201.570312 469 201.300781 469.542969 200.617188 469.542969 L 196.945312 469.542969 C 196.261719 469.40625 195.582031 469 195.445312 468.453125 Z M 195.445312 468.453125 " fill-opacity="1" fill-rule="nonzero"/><path fill="#010510" d="M 125.890625 451.441406 C 123.714844 449.941406 121.535156 449.261719 118.949219 449.261719 C 117.589844 449.261719 116.5 449.398438 115.683594 449.804688 C 115.273438 449.941406 115.003906 450.214844 114.730469 450.351562 C 114.1875 450.757812 113.097656 450.214844 112.824219 449.398438 L 110.238281 442.863281 C 109.964844 442.320312 109.421875 441.777344 108.742188 441.777344 L 105.066406 441.777344 C 104.523438 441.777344 104.25 442.183594 104.386719 442.863281 L 114.730469 468.316406 C 115.003906 468.863281 115.683594 469.40625 116.226562 469.40625 L 119.902344 469.40625 C 120.445312 469.40625 120.71875 469 120.582031 468.316406 L 117.042969 459.472656 C 116.363281 457.703125 116.226562 456.339844 116.773438 455.386719 C 117.316406 454.433594 118.269531 454.027344 119.765625 454.027344 C 121.128906 454.027344 122.214844 454.433594 123.304688 455.25 C 124.257812 456.066406 125.074219 457.15625 125.753906 458.789062 L 129.566406 468.316406 C 129.839844 468.863281 130.519531 469.40625 131.0625 469.40625 L 134.738281 469.40625 C 135.285156 469.40625 135.554688 469 135.417969 468.316406 L 131.199219 457.972656 C 129.703125 455.113281 128.070312 452.9375 125.890625 451.441406 Z M 125.890625 451.441406 " fill-opacity="1" fill-rule="nonzero"/><path fill="#010510" d="M 229.613281 473.082031 L 232.605469 473.082031 C 233.015625 473.082031 233.285156 472.808594 233.285156 472.402344 L 231.515625 439.460938 C 231.515625 438.78125 230.699219 438.101562 230.019531 438.101562 L 227.027344 438.101562 C 226.617188 438.101562 226.34375 438.371094 226.34375 438.78125 L 228.113281 471.722656 C 228.113281 472.402344 228.796875 473.082031 229.613281 473.082031 Z M 229.613281 473.082031 " fill-opacity="1" fill-rule="nonzero"/><path fill="#010510" d="M 200.621094 469.40625 C 201.164062 469.40625 201.4375 469 201.300781 468.316406 L 190.953125 443 C 190.683594 442.457031 190.136719 441.910156 189.457031 441.910156 L 185.78125 441.910156 C 185.238281 441.910156 184.964844 442.320312 185.101562 443 L 195.445312 468.453125 C 195.71875 469 196.261719 469.542969 196.945312 469.542969 L 200.621094 469.542969 Z M 200.621094 469.40625 " fill-opacity="1" fill-rule="nonzero"/><path fill="#010510" d="M 217.769531 473.082031 L 220.765625 473.082031 C 221.171875 473.082031 221.445312 472.808594 221.445312 472.402344 L 219.675781 439.460938 C 219.675781 438.78125 218.859375 438.101562 218.179688 438.101562 L 215.183594 438.101562 C 214.773438 438.101562 214.503906 438.371094 214.503906 438.78125 L 216.273438 471.722656 C 216.273438 472.402344 216.953125 473.082031 217.769531 473.082031 Z M 217.769531 473.082031 " fill-opacity="1" fill-rule="nonzero"/><path fill="#010510" d="M 204.15625 466.140625 C 204.566406 467.230469 205.246094 468.046875 206.199219 468.726562 C 207.152344 469.40625 208.105469 469.816406 209.195312 469.816406 C 210.285156 469.816406 210.964844 469.40625 211.371094 468.726562 C 211.78125 468.046875 211.78125 467.230469 211.371094 466.140625 C 210.964844 465.050781 210.285156 464.234375 209.332031 463.554688 C 208.378906 462.875 207.425781 462.601562 206.335938 462.601562 C 205.382812 462.601562 204.566406 462.875 204.15625 463.554688 C 203.75 464.234375 203.75 465.050781 204.15625 466.140625 Z M 204.15625 466.140625 " fill-opacity="1" fill-rule="nonzero"/><path fill="#010510" d="M 181.15625 451.441406 C 179.113281 449.941406 176.800781 449.261719 174.347656 449.261719 C 172.851562 449.261719 171.625 449.535156 170.539062 450.078125 C 169.855469 450.488281 169.3125 451.03125 168.902344 451.574219 C 168.632812 451.984375 167.953125 451.984375 167.269531 451.574219 C 166.453125 451.03125 165.636719 450.488281 164.683594 450.078125 C 163.324219 449.535156 161.960938 449.261719 160.464844 449.261719 C 159.105469 449.261719 158.152344 449.535156 157.199219 449.941406 C 156.246094 450.351562 155.699219 451.03125 155.292969 451.847656 L 154.75 450.625 C 154.476562 450.078125 153.929688 449.535156 153.25 449.535156 L 149.847656 449.535156 C 149.304688 449.535156 149.03125 449.941406 149.167969 450.625 L 156.382812 468.453125 C 156.652344 469 157.199219 469.542969 157.878906 469.542969 L 161.554688 469.542969 C 162.097656 469.542969 162.371094 469.136719 162.234375 468.453125 L 158.558594 459.472656 C 157.878906 457.703125 157.742188 456.476562 158.152344 455.523438 C 158.558594 454.707031 159.511719 454.164062 160.875 454.164062 C 163.324219 454.164062 165.230469 455.796875 166.589844 458.925781 L 170.402344 468.453125 C 170.671875 469 171.355469 469.542969 171.898438 469.542969 L 175.574219 469.542969 C 176.117188 469.542969 176.390625 469.136719 176.253906 468.453125 L 172.578125 459.472656 C 171.898438 457.703125 171.761719 456.476562 172.171875 455.523438 C 172.578125 454.707031 173.53125 454.164062 174.894531 454.164062 C 176.117188 454.164062 177.207031 454.570312 178.160156 455.386719 C 179.113281 456.203125 179.929688 457.292969 180.609375 458.925781 L 184.421875 468.453125 C 184.695312 469 185.238281 469.542969 185.917969 469.542969 L 189.59375 469.542969 C 190.136719 469.542969 190.410156 469.136719 190.273438 468.453125 L 186.054688 458.109375 C 184.828125 455.113281 183.195312 452.800781 181.15625 451.441406 Z M 181.15625 451.441406 " fill-opacity="1" fill-rule="nonzero"/><path fill="#010510" d="M 150.9375 465.460938 C 150.527344 464.914062 149.847656 464.644531 149.441406 464.914062 C 149.03125 465.050781 148.625 465.1875 148.078125 465.1875 C 147.261719 465.1875 146.582031 464.914062 146.035156 464.507812 C 145.355469 464.097656 144.949219 463.417969 144.539062 462.601562 L 141.679688 455.523438 C 141.410156 454.980469 141.679688 454.433594 142.363281 454.433594 L 145.21875 454.433594 C 145.765625 454.433594 146.035156 454.027344 145.902344 453.34375 L 144.949219 450.894531 C 144.675781 450.351562 144.132812 449.804688 143.449219 449.804688 L 140.59375 449.804688 C 140.046875 449.804688 139.367188 449.398438 139.09375 448.71875 L 138.007812 445.996094 C 137.734375 445.449219 137.054688 444.90625 136.507812 444.90625 L 132.832031 444.90625 C 132.289062 444.90625 132.015625 445.316406 132.152344 445.996094 L 133.242188 448.71875 C 133.515625 449.261719 133.242188 449.804688 132.5625 449.804688 L 131.609375 449.804688 C 131.0625 449.804688 130.792969 450.214844 130.929688 450.894531 L 131.882812 453.34375 C 132.152344 453.890625 132.699219 454.433594 133.378906 454.433594 L 134.332031 454.433594 C 134.875 454.433594 135.554688 454.84375 135.828125 455.523438 L 138.6875 462.738281 C 139.640625 465.050781 141 466.820312 142.769531 468.046875 C 144.539062 469.269531 146.582031 469.816406 149.03125 469.816406 C 149.984375 469.816406 150.800781 469.679688 151.480469 469.542969 C 151.890625 469.40625 152.296875 469.269531 152.570312 469.136719 C 152.980469 468.863281 152.980469 468.316406 152.570312 467.910156 Z M 150.9375 465.460938 " fill-opacity="1" fill-rule="nonzero"/><path fill="#010510" d="M 200.890625 455.386719 C 201.84375 456.066406 202.796875 456.476562 203.886719 456.476562 C 204.976562 456.476562 205.65625 456.066406 206.0625 455.386719 C 206.472656 454.707031 206.472656 453.890625 206.0625 452.800781 C 205.65625 451.710938 204.976562 450.894531 204.023438 450.214844 C 203.070312 449.535156 202.117188 449.261719 201.027344 449.261719 C 200.074219 449.261719 199.257812 449.535156 198.851562 450.214844 C 198.441406 450.894531 198.441406 451.710938 198.851562 452.800781 C 199.257812 453.753906 199.9375 454.707031 200.890625 455.386719 Z M 200.890625 455.386719 " fill-opacity="1" fill-rule="nonzero"/><g clip-path="url(#87fbdb86c8)"><g clip-path="url(#9d93377666)"><path fill="#0034bb" d="M 53.550781 752.773438 L 62.332031 752.773438 L 62.332031 761.324219 L 53.550781 761.324219 Z M 53.550781 752.773438 " fill-opacity="1" fill-rule="nonzero"/></g></g></svg>