<svg xmlns="http://www.w3.org/2000/svg" xmlns:xlink="http://www.w3.org/1999/xlink" width="500" zoomAndPan="magnify" viewBox="0 0 375 374.999991" height="500" preserveAspectRatio="xMidYMid meet" version="1.0"><defs><g/><clipPath id="775baf42d9"><path d="M 175.121094 242.847656 L 202.121094 242.847656 L 202.121094 256.347656 L 175.121094 256.347656 Z M 175.121094 242.847656 " clip-rule="nonzero"/></clipPath><clipPath id="77f24d8643"><path d="M 54 244 L 83 244 L 83 261 L 54 261 Z M 54 244 " clip-rule="nonzero"/></clipPath><clipPath id="01d97742aa"><path d="M 82.730469 260.722656 L 54.269531 259.179688 L 55.042969 244.953125 L 83.5 246.492188 Z M 82.730469 260.722656 " clip-rule="nonzero"/></clipPath><clipPath id="b71038f9ec"><path d="M 83.5 246.46875 L 25.085938 243.304688 L 24.316406 257.535156 L 82.730469 260.699219 Z M 83.5 246.46875 " clip-rule="nonzero"/></clipPath></defs><g fill="#000000" fill-opacity="1"><g transform="translate(72.496654, 228.707666)"><g><path d="M 13.609375 -58.6875 C 13.609375 -67.21875 13.410156 -75.160156 13.015625 -82.515625 C 12.628906 -89.867188 11.691406 -96.5 10.203125 -102.40625 C 8.722656 -108.3125 6.300781 -113.300781 2.9375 -117.375 C 14.363281 -117.375 25.726562 -117.742188 37.03125 -118.484375 C 48.34375 -119.234375 59.671875 -119.609375 71.015625 -119.609375 C 78.835938 -119.609375 85.816406 -118.253906 91.953125 -115.546875 C 98.097656 -112.847656 102.953125 -108.859375 106.515625 -103.578125 C 110.078125 -98.296875 111.859375 -91.707031 111.859375 -83.8125 C 111.859375 -77.863281 110.679688 -72.617188 108.328125 -68.078125 C 105.984375 -63.535156 102.816406 -59.71875 98.828125 -56.625 C 94.835938 -53.539062 90.335938 -51.234375 85.328125 -49.703125 C 80.316406 -48.179688 75.15625 -47.421875 69.84375 -47.421875 C 63.96875 -47.421875 58.253906 -48.160156 52.703125 -49.640625 C 47.148438 -51.128906 42.0625 -53.675781 37.4375 -57.28125 C 38.851562 -53.050781 41.066406 -49.054688 44.078125 -45.296875 C 47.085938 -41.546875 50.644531 -38.257812 54.75 -35.4375 C 58.863281 -32.625 63.304688 -30.414062 68.078125 -28.8125 C 72.847656 -27.207031 77.695312 -26.40625 82.625 -26.40625 C 88.1875 -26.40625 93.273438 -27.398438 97.890625 -29.390625 C 102.503906 -31.390625 106.222656 -33.800781 109.046875 -36.625 L 109.046875 0 C 108.265625 0.46875 106.894531 0.878906 104.9375 1.234375 C 102.976562 1.585938 100.921875 1.859375 98.765625 2.046875 C 96.617188 2.242188 94.800781 2.34375 93.3125 2.34375 C 87.207031 2.34375 81.375 1.191406 75.8125 -1.109375 C 70.257812 -3.421875 65.054688 -6.550781 60.203125 -10.5 C 55.359375 -14.457031 50.976562 -18.921875 47.0625 -23.890625 C 43.15625 -28.859375 39.789062 -34 36.96875 -39.3125 C 34.15625 -44.632812 32.003906 -49.859375 30.515625 -54.984375 C 29.023438 -60.109375 28.28125 -64.75 28.28125 -68.90625 C 29.769531 -68.113281 31.707031 -67.070312 34.09375 -65.78125 C 36.476562 -64.5 39.21875 -63.191406 42.3125 -61.859375 C 45.40625 -60.523438 48.769531 -59.40625 52.40625 -58.5 C 56.039062 -57.601562 59.78125 -57.15625 63.625 -57.15625 C 70.269531 -57.15625 75.390625 -58.71875 78.984375 -61.84375 C 82.585938 -64.976562 84.390625 -69.050781 84.390625 -74.0625 C 84.390625 -79.226562 82.375 -83.492188 78.34375 -86.859375 C 74.3125 -90.222656 67.957031 -91.90625 59.28125 -91.90625 C 52.226562 -91.90625 45.472656 -91.648438 39.015625 -91.140625 C 32.566406 -90.628906 26.644531 -90.375 21.25 -90.375 L 21.25 -64.796875 C 21.25 -56.804688 22.285156 -49.425781 24.359375 -42.65625 C 26.429688 -35.894531 29.164062 -29.796875 32.5625 -24.359375 C 35.96875 -18.921875 39.6875 -14.164062 43.71875 -10.09375 C 47.75 -6.019531 51.679688 -2.65625 55.515625 0 L 2.9375 0 C 6.300781 -4.070312 8.722656 -9.0625 10.203125 -14.96875 C 11.691406 -20.875 12.628906 -27.523438 13.015625 -34.921875 C 13.410156 -42.316406 13.609375 -50.238281 13.609375 -58.6875 Z M 13.609375 -58.6875 "/></g></g></g><g fill="#000000" fill-opacity="1"><g transform="translate(180.422336, 256.604134)"><g><path d="M 65.625 2.375 C 55.945312 2.375 47.382812 0.769531 39.9375 -2.4375 C 32.488281 -5.644531 26.25 -10.082031 21.21875 -15.75 C 16.1875 -21.414062 12.378906 -27.972656 9.796875 -35.421875 C 7.222656 -42.867188 5.9375 -50.875 5.9375 -59.4375 C 5.9375 -68 7.222656 -76.003906 9.796875 -83.453125 C 12.378906 -90.898438 16.1875 -97.457031 21.21875 -103.125 C 26.25 -108.789062 32.488281 -113.226562 39.9375 -116.4375 C 47.382812 -119.644531 55.945312 -121.25 65.625 -121.25 C 75.6875 -121.25 84.398438 -119.765625 91.765625 -116.796875 C 99.140625 -113.828125 104.847656 -109.765625 108.890625 -104.609375 C 112.929688 -99.460938 114.953125 -93.597656 114.953125 -87.015625 C 114.953125 -81.703125 113.445312 -77.421875 110.4375 -74.171875 C 107.425781 -70.921875 103.660156 -69.296875 99.140625 -69.296875 C 97.003906 -69.296875 94.707031 -69.734375 92.25 -70.609375 C 93.039062 -74.097656 92.921875 -77.109375 91.890625 -79.640625 C 90.859375 -82.179688 89.15625 -84.300781 86.78125 -86 C 84.40625 -87.707031 81.628906 -89.078125 78.453125 -90.109375 C 75.285156 -91.140625 72 -91.867188 68.59375 -92.296875 C 65.1875 -92.734375 61.976562 -92.953125 58.96875 -92.953125 C 49.0625 -92.953125 40.71875 -91.503906 33.9375 -88.609375 C 27.164062 -85.722656 22.070312 -81.765625 18.65625 -76.734375 C 15.25 -71.703125 13.546875 -65.9375 13.546875 -59.4375 C 13.546875 -52.9375 15.25 -47.171875 18.65625 -42.140625 C 22.070312 -37.109375 27.164062 -33.144531 33.9375 -30.25 C 40.71875 -27.363281 49.0625 -25.921875 58.96875 -25.921875 C 61.976562 -25.921875 65.1875 -26.132812 68.59375 -26.5625 C 72 -27 75.285156 -27.734375 78.453125 -28.765625 C 81.628906 -29.796875 84.40625 -31.160156 86.78125 -32.859375 C 89.15625 -34.566406 90.875 -36.6875 91.9375 -39.21875 C 93.007812 -41.757812 93.113281 -44.773438 92.25 -48.265625 C 94.707031 -49.140625 97.003906 -49.578125 99.140625 -49.578125 C 103.660156 -49.578125 107.425781 -47.953125 110.4375 -44.703125 C 113.445312 -41.453125 114.953125 -37.171875 114.953125 -31.859375 C 114.953125 -25.359375 112.929688 -19.507812 108.890625 -14.3125 C 104.847656 -9.125 99.140625 -5.046875 91.765625 -2.078125 C 84.398438 0.890625 75.6875 2.375 65.625 2.375 Z M 65.625 2.375 "/></g></g></g><path stroke-linecap="butt" transform="matrix(0.75, 0, 0, 0.75, 74.657937, 253.761223)" fill="none" stroke-linejoin="miter" d="M -0.0022496 2.000661 L 192.450888 2.000661 " stroke="#000000" stroke-width="4" stroke-opacity="1" stroke-miterlimit="4"/><g fill="#000000" fill-opacity="1"><g transform="translate(57.916868, 246.793328)"><g><path d="M 5.390625 0 L 3.34375 -3.046875 L 2.515625 -3.046875 L 2.515625 0 L 0.875 0 L 0.875 -8.03125 L 3.796875 -8.03125 C 4.828125 -8.03125 5.582031 -7.84375 6.0625 -7.46875 C 6.539062 -7.101562 6.78125 -6.5 6.78125 -5.65625 C 6.78125 -4.96875 6.632812 -4.421875 6.34375 -4.015625 C 6.050781 -3.609375 5.640625 -3.347656 5.109375 -3.234375 L 7.265625 0 Z M 5.109375 -5.578125 C 5.109375 -5.984375 5.003906 -6.253906 4.796875 -6.390625 C 4.597656 -6.535156 4.257812 -6.609375 3.78125 -6.609375 L 2.515625 -6.609375 L 2.515625 -4.46875 L 3.703125 -4.46875 C 4.078125 -4.46875 4.363281 -4.5 4.5625 -4.5625 C 4.757812 -4.632812 4.898438 -4.742188 4.984375 -4.890625 C 5.066406 -5.046875 5.109375 -5.273438 5.109375 -5.578125 Z M 5.109375 -5.578125 "/></g></g></g><g fill="#000000" fill-opacity="1"><g transform="translate(67.635641, 246.793328)"><g><path d="M 7.484375 -3.359375 C 7.484375 -2.097656 7.226562 -1.191406 6.71875 -0.640625 C 6.207031 -0.0859375 5.359375 0.1875 4.171875 0.1875 C 3.003906 0.1875 2.160156 -0.0820312 1.640625 -0.625 C 1.128906 -1.175781 0.875 -2.085938 0.875 -3.359375 L 0.875 -8.03125 L 2.515625 -8.03125 L 2.515625 -3.46875 C 2.515625 -2.925781 2.566406 -2.5 2.671875 -2.1875 C 2.773438 -1.875 2.9375 -1.640625 3.15625 -1.484375 C 3.382812 -1.335938 3.71875 -1.265625 4.15625 -1.265625 C 4.78125 -1.265625 5.21875 -1.429688 5.46875 -1.765625 C 5.71875 -2.097656 5.84375 -2.660156 5.84375 -3.453125 L 5.84375 -8.03125 L 7.484375 -8.03125 Z M 7.484375 -3.359375 "/></g></g></g><g fill="#000000" fill-opacity="1"><g transform="translate(78.248828, 246.793328)"><g><path d="M 7.03125 -2.328125 C 7.03125 -1.523438 6.75 -0.9375 6.1875 -0.5625 C 5.632812 -0.1875 4.867188 0 3.890625 0 L 0.875 0 L 0.875 -8.03125 L 3.703125 -8.03125 C 4.734375 -8.03125 5.472656 -7.878906 5.921875 -7.578125 C 6.367188 -7.285156 6.59375 -6.8125 6.59375 -6.15625 C 6.59375 -5.65625 6.46875 -5.25 6.21875 -4.9375 C 5.976562 -4.632812 5.601562 -4.429688 5.09375 -4.328125 C 5.769531 -4.234375 6.257812 -4.019531 6.5625 -3.6875 C 6.875 -3.351562 7.03125 -2.898438 7.03125 -2.328125 Z M 4.9375 -5.796875 C 4.9375 -6.109375 4.820312 -6.320312 4.59375 -6.4375 C 4.375 -6.550781 4.023438 -6.609375 3.546875 -6.609375 L 2.515625 -6.609375 L 2.515625 -4.890625 L 3.5 -4.890625 C 3.988281 -4.890625 4.347656 -4.957031 4.578125 -5.09375 C 4.816406 -5.226562 4.9375 -5.460938 4.9375 -5.796875 Z M 5.359375 -2.46875 C 5.359375 -2.832031 5.234375 -3.085938 4.984375 -3.234375 C 4.742188 -3.378906 4.285156 -3.453125 3.609375 -3.453125 L 2.515625 -3.453125 L 2.515625 -1.453125 L 3.34375 -1.453125 C 3.976562 -1.453125 4.414062 -1.484375 4.65625 -1.546875 C 4.894531 -1.609375 5.070312 -1.710938 5.1875 -1.859375 C 5.300781 -2.003906 5.359375 -2.207031 5.359375 -2.46875 Z M 5.359375 -2.46875 "/></g></g></g><g fill="#000000" fill-opacity="1"><g transform="translate(88.048911, 246.793328)"><g><path d="M 0.875 0 L 0.875 -8.03125 L 6.09375 -8.03125 L 6.09375 -6.59375 L 2.515625 -6.59375 L 2.515625 -4.875 L 5.53125 -4.875 L 5.53125 -3.421875 L 2.515625 -3.421875 L 2.515625 -1.5 L 6.09375 -1.5 L 6.09375 0 Z M 0.875 0 "/></g></g></g><g fill="#000000" fill-opacity="1"><g transform="translate(96.983627, 246.793328)"><g><path d="M 5.40625 0 L 2.46875 -5.734375 L 2.46875 0 L 0.875 0 L 0.875 -8.03125 L 3 -8.03125 L 5.71875 -2.625 L 5.71875 -8.03125 L 7.328125 -8.03125 L 7.328125 0 Z M 5.40625 0 "/></g></g></g><g fill="#000000" fill-opacity="1"><g transform="translate(107.440005, 246.793328)"><g/></g></g><g fill="#000000" fill-opacity="1"><g transform="translate(112.558941, 246.793328)"><g><path d="M 7.40625 -1.328125 C 7.0625 -0.816406 6.640625 -0.4375 6.140625 -0.1875 C 5.640625 0.0507812 5.023438 0.171875 4.296875 0.171875 C 1.804688 0.171875 0.5625 -1.222656 0.5625 -4.015625 C 0.5625 -5.441406 0.875 -6.492188 1.5 -7.171875 C 2.132812 -7.859375 3.046875 -8.203125 4.234375 -8.203125 C 5.015625 -8.203125 5.648438 -8.066406 6.140625 -7.796875 C 6.640625 -7.535156 7.019531 -7.191406 7.28125 -6.765625 L 6.015625 -5.78125 C 5.828125 -6.050781 5.65625 -6.25 5.5 -6.375 C 5.34375 -6.5 5.164062 -6.59375 4.96875 -6.65625 C 4.769531 -6.71875 4.535156 -6.75 4.265625 -6.75 C 3.609375 -6.75 3.109375 -6.539062 2.765625 -6.125 C 2.421875 -5.707031 2.25 -5.003906 2.25 -4.015625 C 2.25 -3.097656 2.410156 -2.410156 2.734375 -1.953125 C 3.054688 -1.503906 3.570312 -1.28125 4.28125 -1.28125 C 4.757812 -1.28125 5.128906 -1.367188 5.390625 -1.546875 C 5.648438 -1.734375 5.890625 -1.976562 6.109375 -2.28125 Z M 7.40625 -1.328125 "/></g></g></g><g fill="#000000" fill-opacity="1"><g transform="translate(122.562307, 246.793328)"><g><path d="M 7.421875 -4.015625 C 7.421875 -2.617188 7.125 -1.570312 6.53125 -0.875 C 5.945312 -0.175781 5.085938 0.171875 3.953125 0.171875 C 2.765625 0.171875 1.890625 -0.191406 1.328125 -0.921875 C 0.773438 -1.660156 0.5 -2.691406 0.5 -4.015625 C 0.5 -5.347656 0.773438 -6.378906 1.328125 -7.109375 C 1.890625 -7.835938 2.765625 -8.203125 3.953125 -8.203125 C 5.148438 -8.203125 6.023438 -7.835938 6.578125 -7.109375 C 7.140625 -6.378906 7.421875 -5.347656 7.421875 -4.015625 Z M 5.734375 -4.015625 C 5.734375 -4.972656 5.597656 -5.664062 5.328125 -6.09375 C 5.054688 -6.53125 4.597656 -6.75 3.953125 -6.75 C 3.316406 -6.75 2.863281 -6.53125 2.59375 -6.09375 C 2.320312 -5.664062 2.1875 -4.972656 2.1875 -4.015625 C 2.1875 -3.066406 2.320312 -2.375 2.59375 -1.9375 C 2.863281 -1.5 3.316406 -1.28125 3.953125 -1.28125 C 4.597656 -1.28125 5.054688 -1.5 5.328125 -1.9375 C 5.597656 -2.375 5.734375 -3.066406 5.734375 -4.015625 Z M 5.734375 -4.015625 "/></g></g></g><g fill="#000000" fill-opacity="1"><g transform="translate(132.745711, 246.793328)"><g><path d="M 5.390625 0 L 3.34375 -3.046875 L 2.515625 -3.046875 L 2.515625 0 L 0.875 0 L 0.875 -8.03125 L 3.796875 -8.03125 C 4.828125 -8.03125 5.582031 -7.84375 6.0625 -7.46875 C 6.539062 -7.101562 6.78125 -6.5 6.78125 -5.65625 C 6.78125 -4.96875 6.632812 -4.421875 6.34375 -4.015625 C 6.050781 -3.609375 5.640625 -3.347656 5.109375 -3.234375 L 7.265625 0 Z M 5.109375 -5.578125 C 5.109375 -5.984375 5.003906 -6.253906 4.796875 -6.390625 C 4.597656 -6.535156 4.257812 -6.609375 3.78125 -6.609375 L 2.515625 -6.609375 L 2.515625 -4.46875 L 3.703125 -4.46875 C 4.078125 -4.46875 4.363281 -4.5 4.5625 -4.5625 C 4.757812 -4.632812 4.898438 -4.742188 4.984375 -4.890625 C 5.066406 -5.046875 5.109375 -5.273438 5.109375 -5.578125 Z M 5.109375 -5.578125 "/></g></g></g><g fill="#000000" fill-opacity="1"><g transform="translate(142.464485, 246.793328)"><g><path d="M 5.40625 0 L 2.46875 -5.734375 L 2.46875 0 L 0.875 0 L 0.875 -8.03125 L 3 -8.03125 L 5.71875 -2.625 L 5.71875 -8.03125 L 7.328125 -8.03125 L 7.328125 0 Z M 5.40625 0 "/></g></g></g><g fill="#000000" fill-opacity="1"><g transform="translate(152.920865, 246.793328)"><g><path d="M 0.875 0 L 0.875 -8.03125 L 6.09375 -8.03125 L 6.09375 -6.59375 L 2.515625 -6.59375 L 2.515625 -4.875 L 5.53125 -4.875 L 5.53125 -3.421875 L 2.515625 -3.421875 L 2.515625 -1.5 L 6.09375 -1.5 L 6.09375 0 Z M 0.875 0 "/></g></g></g><g fill="#000000" fill-opacity="1"><g transform="translate(161.855582, 246.793328)"><g><path d="M 4.46875 -2.1875 C 4.46875 -1.34375 4.253906 -0.734375 3.828125 -0.359375 C 3.398438 0.00390625 2.726562 0.1875 1.8125 0.1875 C 1.613281 0.1875 1.335938 0.15625 0.984375 0.09375 C 0.640625 0.03125 0.347656 -0.046875 0.109375 -0.140625 L 0.609375 -1.59375 C 0.734375 -1.519531 0.929688 -1.445312 1.203125 -1.375 C 1.484375 -1.300781 1.703125 -1.265625 1.859375 -1.265625 C 2.140625 -1.265625 2.34375 -1.300781 2.46875 -1.375 C 2.601562 -1.457031 2.695312 -1.59375 2.75 -1.78125 C 2.800781 -1.976562 2.828125 -2.257812 2.828125 -2.625 L 2.828125 -8.03125 L 4.46875 -8.03125 Z M 4.46875 -2.1875 "/></g></g></g><g fill="#000000" fill-opacity="1"><g transform="translate(169.483515, 246.793328)"><g><path d="M 7.421875 -4.015625 C 7.421875 -2.617188 7.125 -1.570312 6.53125 -0.875 C 5.945312 -0.175781 5.085938 0.171875 3.953125 0.171875 C 2.765625 0.171875 1.890625 -0.191406 1.328125 -0.921875 C 0.773438 -1.660156 0.5 -2.691406 0.5 -4.015625 C 0.5 -5.347656 0.773438 -6.378906 1.328125 -7.109375 C 1.890625 -7.835938 2.765625 -8.203125 3.953125 -8.203125 C 5.148438 -8.203125 6.023438 -7.835938 6.578125 -7.109375 C 7.140625 -6.378906 7.421875 -5.347656 7.421875 -4.015625 Z M 5.734375 -4.015625 C 5.734375 -4.972656 5.597656 -5.664062 5.328125 -6.09375 C 5.054688 -6.53125 4.597656 -6.75 3.953125 -6.75 C 3.316406 -6.75 2.863281 -6.53125 2.59375 -6.09375 C 2.320312 -5.664062 2.1875 -4.972656 2.1875 -4.015625 C 2.1875 -3.066406 2.320312 -2.375 2.59375 -1.9375 C 2.863281 -1.5 3.316406 -1.28125 3.953125 -1.28125 C 4.597656 -1.28125 5.054688 -1.5 5.328125 -1.9375 C 5.597656 -2.375 5.734375 -3.066406 5.734375 -4.015625 Z M 5.734375 -4.015625 "/></g></g></g><g clip-path="url(#775baf42d9)"><path fill="#000000" d="M 199.351562 242.882812 C 196.941406 243.050781 195.429688 243.445312 192.992188 244.53125 C 192.539062 244.734375 191.910156 245.011719 191.601562 245.152344 C 190.191406 245.773438 189.476562 246.199219 187.964844 247.308594 C 187.566406 247.601562 186.949219 248.039062 186.597656 248.28125 C 184.828125 249.507812 183.660156 250.34375 182.332031 251.339844 C 181.546875 251.925781 181.445312 251.996094 180.824219 252.332031 C 179.277344 253.171875 177.535156 253.824219 175.289062 254.40625 L 175.121094 254.449219 L 175.121094 256.441406 L 230.699219 256.441406 L 230.699219 254.117188 C 230.699219 252.839844 230.6875 251.796875 230.675781 251.796875 C 230.664062 251.796875 230.582031 251.828125 230.488281 251.878906 C 230.0625 252.089844 228.371094 252.703125 227.429688 252.984375 C 225.398438 253.589844 223.242188 254 220.90625 254.234375 C 220.039062 254.320312 217.304688 254.308594 216.46875 254.214844 C 213.769531 253.910156 211.21875 253.121094 206.601562 251.15625 C 203.765625 249.949219 202.167969 249.390625 200.378906 248.976562 C 198.757812 248.605469 197.972656 248.519531 196.359375 248.550781 C 195.019531 248.578125 194.324219 248.65625 193.070312 248.90625 C 191.019531 249.324219 189.664062 249.851562 187.03125 251.238281 C 186.714844 251.40625 186.453125 251.535156 186.453125 251.523438 C 186.453125 251.511719 186.578125 251.410156 186.722656 251.292969 C 186.875 251.175781 187.503906 250.648438 188.125 250.125 C 188.746094 249.597656 189.476562 248.996094 189.75 248.777344 C 191.390625 247.492188 193.105469 246.679688 194.839844 246.367188 C 196.226562 246.121094 197.921875 246.140625 199.414062 246.4375 C 200.382812 246.628906 201.644531 247 202.976562 247.496094 C 204.308594 247.992188 205.160156 248.355469 207.402344 249.386719 C 210.917969 251 212.703125 251.695312 214.742188 252.25 C 217.640625 253.042969 220.390625 253.179688 222.621094 252.644531 C 225.085938 252.058594 227.792969 250.671875 230.273438 248.714844 L 230.695312 248.386719 L 230.699219 247.332031 C 230.699219 246.5 230.683594 246.285156 230.644531 246.3125 C 230.617188 246.328125 230.347656 246.507812 230.050781 246.707031 C 229.402344 247.136719 227.957031 247.875 227.113281 248.207031 C 225.632812 248.789062 224.203125 249.058594 222.535156 249.058594 C 221.140625 249.058594 220.160156 248.890625 218.019531 248.28125 C 216.683594 247.902344 215.039062 247.308594 213.125 246.515625 C 212.515625 246.261719 211.957031 246.035156 211.890625 246.011719 C 211.820312 245.984375 211.773438 245.960938 211.78125 245.949219 C 211.789062 245.941406 212.433594 246.144531 213.203125 246.40625 C 215.0625 247.03125 215.683594 247.222656 216.824219 247.515625 C 219.011719 248.066406 220.027344 248.207031 221.6875 248.203125 C 222.910156 248.203125 223.851562 248.117188 225.007812 247.90625 C 226.730469 247.59375 228.550781 246.984375 230.070312 246.21875 L 230.675781 245.910156 L 230.6875 245.441406 C 230.695312 245.1875 230.6875 244.976562 230.675781 244.976562 C 230.664062 244.976562 230.464844 245.074219 230.230469 245.191406 C 229.671875 245.46875 228.652344 245.878906 227.839844 246.152344 C 224.835938 247.152344 221.636719 247.40625 218.828125 246.863281 C 217.253906 246.558594 215.941406 246.195312 213.570312 245.414062 C 210.46875 244.386719 207.621094 243.621094 205.667969 243.289062 C 204.589844 243.105469 203.402344 242.96875 202.238281 242.894531 C 201.609375 242.855469 199.832031 242.847656 199.351562 242.882812 Z M 201.777344 244.675781 C 203.027344 244.742188 203.71875 244.878906 205.429688 245.394531 C 206.714844 245.785156 207.152344 245.949219 209.230469 246.828125 C 210.234375 247.25 211.503906 247.773438 212.050781 247.996094 C 212.601562 248.21875 213.5625 248.605469 214.1875 248.859375 C 216.613281 249.84375 218.757812 250.460938 220.515625 250.683594 C 220.933594 250.738281 221.636719 250.804688 222.226562 250.84375 C 222.40625 250.855469 221.621094 250.96875 221.011719 251.019531 C 219.175781 251.160156 216.644531 250.761719 214.125 249.933594 C 212.40625 249.367188 211.179688 248.855469 207.230469 247.0625 C 204.945312 246.023438 202.769531 245.199219 201.261719 244.804688 C 200.875 244.699219 200.730469 244.632812 200.917969 244.632812 C 200.972656 244.632812 201.359375 244.652344 201.777344 244.675781 Z M 208.582031 245.605469 C 209.410156 245.882812 210.738281 246.390625 212.570312 247.128906 C 215.785156 248.421875 218.976562 249.375 220.972656 249.648438 C 221.636719 249.742188 223.238281 249.753906 223.96875 249.671875 C 225.40625 249.511719 226.949219 249.074219 228.089844 248.496094 C 228.234375 248.421875 228.355469 248.375 228.355469 248.382812 C 228.355469 248.464844 226.222656 249.566406 225.328125 249.941406 C 224.496094 250.292969 224.457031 250.296875 222.90625 250.292969 C 221.15625 250.289062 220.324219 250.1875 218.648438 249.765625 C 216.925781 249.335938 214.09375 248.265625 211.378906 247.019531 C 210.816406 246.761719 209.777344 246.292969 209.074219 245.976562 C 207.332031 245.195312 207.296875 245.167969 208.582031 245.605469 Z M 208.582031 245.605469 " fill-opacity="1" fill-rule="nonzero"/></g><g clip-path="url(#77f24d8643)"><g clip-path="url(#01d97742aa)"><g clip-path="url(#b71038f9ec)"><path fill="#ffffff" d="M 57.933594 245.121094 C 60.464844 245.4375 62.035156 245.941406 64.546875 247.226562 C 65.015625 247.464844 65.664062 247.796875 65.980469 247.960938 C 67.429688 248.695312 68.160156 249.1875 69.691406 250.445312 C 70.097656 250.773438 70.722656 251.273438 71.082031 251.550781 C 72.878906 252.941406 74.0625 253.894531 75.410156 255.019531 C 76.199219 255.683594 76.308594 255.761719 76.941406 256.152344 C 78.527344 257.125 80.324219 257.914062 82.667969 258.65625 L 82.835938 258.710938 L 82.722656 260.8125 L 24.074219 257.640625 L 24.207031 255.1875 C 24.28125 253.839844 24.351562 252.738281 24.363281 252.738281 C 24.378906 252.738281 24.460938 252.78125 24.554688 252.835938 C 24.992188 253.085938 26.746094 253.828125 27.722656 254.179688 C 29.832031 254.933594 32.082031 255.488281 34.535156 255.871094 C 35.445312 256.011719 38.332031 256.15625 39.21875 256.101562 C 42.085938 255.933594 44.820312 255.246094 49.808594 253.441406 C 52.867188 252.328125 54.585938 251.828125 56.496094 251.496094 C 58.226562 251.195312 59.0625 251.152344 60.765625 251.277344 C 62.175781 251.378906 62.90625 251.503906 64.210938 251.839844 C 66.355469 252.398438 67.753906 253.027344 70.453125 254.644531 C 70.777344 254.835938 71.046875 254.988281 71.046875 254.976562 C 71.046875 254.964844 70.925781 254.847656 70.773438 254.71875 C 70.621094 254.585938 69.988281 253.996094 69.363281 253.40625 C 68.738281 252.816406 68 252.136719 67.726562 251.890625 C 66.066406 250.441406 64.304688 249.488281 62.492188 249.058594 C 61.039062 248.71875 59.253906 248.644531 57.660156 248.871094 C 56.628906 249.015625 55.277344 249.339844 53.84375 249.785156 C 52.40625 250.230469 51.488281 250.566406 49.0625 251.523438 C 45.261719 253.027344 43.339844 253.660156 41.152344 254.128906 C 38.046875 254.796875 35.140625 254.785156 32.816406 254.097656 C 30.25 253.335938 27.46875 251.714844 24.964844 249.511719 L 24.539062 249.140625 L 24.597656 248.027344 C 24.644531 247.148438 24.667969 246.921875 24.710938 246.953125 C 24.742188 246.972656 25.015625 247.175781 25.3125 247.402344 C 25.972656 247.894531 27.457031 248.753906 28.332031 249.15625 C 29.859375 249.855469 31.351562 250.222656 33.109375 250.316406 C 34.582031 250.394531 35.628906 250.273438 37.921875 249.753906 C 39.355469 249.425781 41.125 248.898438 43.1875 248.167969 C 43.847656 247.9375 44.445312 247.726562 44.519531 247.707031 C 44.59375 247.683594 44.648438 247.660156 44.636719 247.648438 C 44.628906 247.640625 43.941406 247.820312 43.109375 248.050781 C 41.113281 248.601562 40.445312 248.769531 39.226562 249.011719 C 36.886719 249.46875 35.808594 249.5625 34.054688 249.460938 C 32.765625 249.390625 31.777344 249.246094 30.570312 248.957031 C 28.769531 248.527344 26.882812 247.78125 25.324219 246.890625 L 24.699219 246.53125 L 24.714844 246.035156 C 24.722656 245.761719 24.738281 245.542969 24.753906 245.542969 C 24.765625 245.546875 24.972656 245.65625 25.214844 245.792969 C 25.785156 246.121094 26.835938 246.609375 27.679688 246.941406 C 30.792969 248.171875 34.152344 248.621094 37.148438 248.210938 C 38.824219 247.980469 40.234375 247.667969 42.78125 246.980469 C 46.109375 246.074219 49.160156 245.425781 51.242188 245.191406 C 52.386719 245.058594 53.652344 244.980469 54.882812 244.96875 C 55.550781 244.964844 57.425781 245.058594 57.933594 245.121094 Z M 55.269531 246.875 C 53.945312 246.875 53.207031 246.980469 51.375 247.425781 C 49.996094 247.765625 49.523438 247.914062 47.277344 248.722656 C 46.195312 249.109375 44.828125 249.589844 44.238281 249.792969 C 43.644531 249.996094 42.609375 250.347656 41.933594 250.582031 C 39.316406 251.484375 37.015625 252.011719 35.148438 252.144531 C 34.707031 252.179688 33.960938 252.210938 33.335938 252.21875 C 33.144531 252.21875 33.96875 252.382812 34.609375 252.46875 C 36.539062 252.726562 39.230469 252.449219 41.9375 251.71875 C 43.785156 251.21875 45.105469 250.75 49.375 249.082031 C 51.847656 248.117188 54.1875 247.371094 55.804688 247.042969 C 56.21875 246.953125 56.375 246.886719 56.175781 246.878906 C 56.117188 246.875 55.710938 246.875 55.269531 246.875 Z M 48.035156 247.464844 C 47.144531 247.710938 45.710938 248.171875 43.738281 248.847656 C 40.273438 250.027344 36.851562 250.855469 34.726562 251.027344 C 34.019531 251.085938 32.328125 251.007812 31.5625 250.878906 C 30.058594 250.628906 28.449219 250.078125 27.285156 249.402344 C 27.132812 249.316406 27.011719 249.261719 27.011719 249.269531 C 27.003906 249.355469 29.191406 250.640625 30.113281 251.085938 C 30.96875 251.503906 31.011719 251.511719 32.652344 251.597656 C 34.5 251.691406 35.378906 251.632812 37.171875 251.285156 C 39.015625 250.929688 42.0625 249.960938 45.003906 248.800781 C 45.609375 248.5625 46.730469 248.125 47.492188 247.832031 C 49.378906 247.105469 49.417969 247.082031 48.035156 247.464844 Z M 48.035156 247.464844 " fill-opacity="1" fill-rule="nonzero"/></g></g></g></svg>